<?xml version="1.0" encoding="utf-8"?>
<!-- Generator: Adobe Illustrator 25.2.0, SVG Export Plug-In . SVG Version: 6.00 Build 0)  -->
<svg version="1.1" xmlns="http://www.w3.org/2000/svg" xmlns:xlink="http://www.w3.org/1999/xlink" x="0px" y="0px"
	 viewBox="0 0 500 404.53" style="enable-background:new 0 0 500 404.53;" xml:space="preserve">
<style type="text/css">
	.st0{display:none;}
	.st1{display:inline;fill:#FFFFFF;}
	.st2{fill:#C7E5FC;}
	.st3{fill:#FFFFFF;}
	.st4{fill:#ED9D88;}
	.st5{fill:#7886FF;}
	.st6{fill:#5EA3E6;}
	.st7{fill:#101229;}
	.st8{fill:#C60013;}
	.st9{opacity:0.51;}
	.st10{fill:#38AB9B;}
	.st11{fill:#FFBA3C;}
	.st12{fill:#4A83C3;}
</style>
<g id="BACKGROUND" class="st0">
	<rect y="-95.47" class="st1" width="500" height="500"/>
</g>
<g id="OBJECTS">
	<g>
		<path class="st2" d="M441.22,394.43H50.05V118.71c0-64.05,51.92-115.97,115.97-115.97h159.23c64.05,0,115.97,51.92,115.97,115.97
			V394.43z"/>
		<g>
			<path class="st3" d="M216.09,144.99c0-21.81-7.18-39.49-54.25-39.49s-54.25,17.68-54.25,39.49s7.18,39.49,54.25,39.49
				c9.58,0,17.49-0.74,24.04-2.09c9.07,8.19,20.09,17.02,23.8,15.35c3.84-1.74,1.92-15.95-0.4-27.69
				C214.73,163.23,216.09,154.5,216.09,144.99z"/>
		</g>
		<g>
			<g>
				<g>
					<g>
						<path class="st4" d="M175.77,386.11c44.09-0.34,48.01,0.73,55.92-23.9c6.6-20.56,23.33-83.16,23.33-83.16
							c4.96-22.89,1.12-32.22-23.46-21.94c-20.58,8.61-38.45,74.7-44.09,93.2c0,0-90.1,11.01-96.48,11.15
							c-12.67,0.28-37.12,4.19-49.58,10.6c-12.47,3.01-10.72,7.15-10.72,7.15c-4.53,1.43-6.92,7.51-1.44,7.04
							C34.73,385.76,129.45,386.46,175.77,386.11z"/>
					</g>
				</g>
			</g>
			<g>
				<g>
					<path d="M194.98,324.78c0,0-0.87,1.82-1.58,5.36c0,0,29.8,14.15,43.37,15.12c0,0,1.65-6.1,1.99-6.97
						C240,335.11,194.98,324.78,194.98,324.78z"/>
				</g>
			</g>
			<g>
				<g>
					<path class="st5" d="M189.94,326.08c8.27-35.09,34.27-75.87,47.56-81.43c24.58-10.29,26.73,12.73,21.77,35.62
						c-7.47,35.57-13.29,59.23-13.29,59.23S203.37,332.73,189.94,326.08z"/>
				</g>
			</g>
			<g>
				<g>
					<path d="M30.69,379.81c-0.26,0-0.5-0.17-0.58-0.43c-0.1-0.32,0.08-0.66,0.4-0.76c0.82-0.25,20.28-6.18,31.09-5.29
						c0.33,0.03,0.58,0.32,0.55,0.65c-0.03,0.33-0.31,0.58-0.65,0.55c-10.59-0.87-30.43,5.18-30.63,5.24
						C30.81,379.8,30.75,379.81,30.69,379.81z"/>
				</g>
			</g>
			<g>
				<g>
					<path d="M39.68,373.51c-0.26,0-0.51-0.17-0.58-0.44c-0.09-0.32,0.1-0.66,0.42-0.75c0.76-0.21,18.58-5.18,22.79-5.3
						c0.34,0.01,0.61,0.25,0.62,0.59c0.01,0.33-0.25,0.61-0.59,0.62c-4.06,0.12-22.31,5.21-22.5,5.26
						C39.79,373.5,39.73,373.51,39.68,373.51z"/>
				</g>
			</g>
		</g>
		<g>
			<g>
				<path class="st4" d="M277.64,211.92l-1.84,23.33l-15.76,5.24c0,0,4.74,36.12,36.76,34.53c32.02-1.59,36.22-45.07,36.22-45.07
					h-16.8l6.01-38.53L277.64,211.92z"/>
			</g>
			<g>
				<path d="M276.42,227.39c0,0,26.32,0,37.2-19.81l-35.98,4.35L276.42,227.39z"/>
			</g>
			<g>
				<path class="st6" d="M388.83,344.18l-11.52,41.24l-169.21-0.21c0,0,11.86-125,27.6-136.66c15.75-11.67,32.7-10.25,33.75-11.84
					c0,0-8.7,19.78,19.12,15.54c27.82-4.24,35-22.3,35-22.3s26.24,0.53,41.99,4.77C381.3,238.97,388.83,344.18,388.83,344.18z"/>
			</g>
			<g>
				<path d="M228,382.32c-0.02,0-0.04,0-0.06,0c-0.33-0.03-0.57-0.33-0.54-0.66c0.06-0.6,6.18-60.16,15.3-100.9
					c0.07-0.33,0.4-0.53,0.72-0.46c0.33,0.07,0.53,0.4,0.46,0.72c-9.11,40.67-15.22,100.16-15.28,100.76
					C228.57,382.08,228.31,382.32,228,382.32z"/>
			</g>
		</g>
		<g>
			<g>
				<g>
					<path class="st7" d="M363.78,166.24c-0.15-8.41-6.09-15.27-13.76-16.52c1.81-4.3,2.81-9.05,2.72-14.07
						c-0.33-18.43-14.84-33.11-32.41-32.8c-17.57,0.31-31.55,15.51-31.23,33.93c0.33,18.43,14.84,33.11,32.41,32.8
						c3.45-0.06,6.76-0.72,9.85-1.84c0.1,1.37,0.33,2.7,0.72,3.97c-7.66,1.48-13.4,8.57-13.25,17.02c0.17,9.4,7.57,16.9,16.54,16.74
						c8.97-0.16,16.1-7.91,15.93-17.32c-0.03-1.71-0.31-3.35-0.78-4.9C358.19,181.78,363.93,174.69,363.78,166.24z"/>
				</g>
			</g>
			<g>
				<g>
					<g>
						<path class="st4" d="M249.93,164.05c-3.87,42.51,8.75,53.57,38.02,54.35c29.27,0.78,46.62-23.43,47.44-53.84
							c0.82-30.42-15.2-55.53-44.47-56.32C261.64,107.46,252.69,133.75,249.93,164.05z"/>
					</g>
				</g>
				<g>
					<g>
						<g>
							<g>
								<path class="st7" d="M305.66,150.08c1.41-0.16,2.42-1.42,2.26-2.83c-0.16-1.41-1.42-2.42-2.83-2.26l-7.27,0.81
									c-1.41,0.16-2.42,1.42-2.26,2.83c0.16,1.41,1.42,2.42,2.83,2.26L305.66,150.08z"/>
							</g>
						</g>
						<g>
							<g>
								<path class="st7" d="M257.94,150.48c-1.4-0.23-2.34-1.55-2.11-2.95c0.23-1.4,1.55-2.34,2.95-2.11l7.22,1.2
									c1.4,0.23,2.34,1.55,2.11,2.95c-0.23,1.4-1.55,2.34-2.95,2.11L257.94,150.48z"/>
							</g>
						</g>
					</g>
					<g>
						<g>
							<path d="M279.41,180.61c-0.01,0-0.01,0-0.02,0c-4-0.11-7.16-3.45-7.05-7.44c0.05-1.93,0.86-3.73,2.26-5.07
								c1.41-1.33,3.25-2.04,5.18-1.98c0.33,0.01,0.6,0.29,0.59,0.62c-0.01,0.33-0.27,0.59-0.62,0.59
								c-1.63-0.06-3.14,0.54-4.32,1.65c-1.17,1.11-1.84,2.61-1.88,4.22c-0.04,1.61,0.54,3.15,1.65,4.32
								c1.11,1.17,2.61,1.84,4.22,1.88c0.33,0.01,0.6,0.29,0.59,0.62C280,180.35,279.73,180.61,279.41,180.61z"/>
						</g>
					</g>
					<g>
						<g>
							<path d="M282.35,196.17c-0.14,0-0.29,0-0.44-0.01c-4.82-0.13-7.51-2.35-7.63-2.45c-0.26-0.21-0.29-0.59-0.07-0.85
								c0.21-0.26,0.6-0.29,0.85-0.08c0.02,0.02,2.51,2.05,6.88,2.17c4.37,0.1,7.31-1.78,7.33-1.8c0.28-0.18,0.65-0.11,0.84,0.17
								c0.18,0.28,0.11,0.65-0.17,0.84C289.83,194.24,286.9,196.17,282.35,196.17z"/>
						</g>
					</g>
				</g>
				<g>
					<g>
						<g>
							<path d="M298.21,165.2c-0.07,2.66,0.65,4.84,3.31,4.91c2.66,0.07,3.5-2.07,3.57-4.73c0.07-2.66-0.65-4.84-3.31-4.91
								C299.12,160.4,298.29,162.54,298.21,165.2z"/>
						</g>
					</g>
				</g>
				<g>
					<g>
						<g>
							<path d="M262.97,164.03c0.12,2.66-0.56,4.85-3.22,4.97c-2.66,0.12-3.53-2-3.65-4.67c-0.12-2.66,0.56-4.85,3.22-4.97
								C261.98,159.24,262.85,161.37,262.97,164.03z"/>
						</g>
					</g>
				</g>
				<g>
					<g>
						<g>
							<g>
								<path class="st4" d="M326.47,164.68c-2.16,7.8,2.41,15.87,10.21,18.03c7.8,2.16,15.87-2.41,18.03-10.21
									c2.16-7.8-2.41-15.87-10.21-18.03C336.71,152.31,328.63,156.88,326.47,164.68z"/>
							</g>
						</g>
						<g>
							<g>
								<g>
									<path d="M334.71,169.04c-0.05,0-0.11-0.01-0.16-0.02c-0.32-0.09-0.51-0.42-0.42-0.74c1.19-4.28,5.64-6.8,9.91-5.61
										c0.32,0.09,0.51,0.42,0.42,0.74c-0.09,0.32-0.42,0.51-0.74,0.42c-3.64-1.01-7.42,1.13-8.43,4.77
										C335.22,168.86,334.98,169.04,334.71,169.04z"/>
								</g>
							</g>
							<g>
								<g>
									<path d="M341.19,175.66c-0.05,0-0.1-0.01-0.15-0.02c-0.32-0.08-0.52-0.42-0.43-0.74c1.34-5.12-3.41-10.08-3.46-10.13
										c-0.23-0.24-0.23-0.62,0.01-0.85c0.24-0.23,0.62-0.23,0.86,0.01c0.22,0.22,5.27,5.51,3.76,11.28
										C341.7,175.48,341.45,175.66,341.19,175.66z"/>
								</g>
							</g>
						</g>
					</g>
				</g>
			</g>
			<g>
				<g>
					<path class="st7" d="M308.38,144.32c4.35-1.24,7.86-3.94,10.25-7.18c5.34,12.06,13.35,27.26,19.26,25.53
						c9.65-2.84,9.12-22.59,6.33-29.93c-3.15-8.29-11.83-16.02-22.66-21.53c2.9-3.94,3.97-9.25,2.36-14.44
						c-2.63-8.48-11.32-13.32-19.4-10.81c-4.85,1.51-8.37,5.32-9.85,9.96c-0.03-0.09-0.04-0.17-0.06-0.26
						c-2.76-8.89-13.04-13.6-22.95-10.52c-9.92,3.08-15.72,12.78-12.96,21.67c0.2,0.66,0.46,1.28,0.74,1.89
						c0,0-18.78,1.59-19.76,14.17c-0.98,12.58,15.3,13.98,15.3,13.98s10.68,15.31,32.02,6.16
						C287,143.01,298.13,147.23,308.38,144.32z"/>
				</g>
			</g>
		</g>
		<g>
			<g>
				<path d="M374.22,385.41c-7.73,0-3.2-24.19-3.2-24.19h12.48C383.5,361.22,383.55,385.41,374.22,385.41z"/>
			</g>
			<g>
				<path class="st6" d="M353.75,283.84l-0.61-51.01c36.26,2.53,46.12,24.31,49.4,53.41c4.71,41.76,0.07,74.98,0.07,74.98
					l-58.82-20.36L353.75,283.84"/>
			</g>
			<g>
				<path class="st8" d="M350.25,158.42c-6.74,1-35.94,25.17-38.51,27.91c-2.57,2.74-10.1,23.98-10.1,26.47
					c0,2.49,6.13,0.98,6.13,0.98l44.2-29.21c0,0,3.13-19.94,2.38-23.14C353.62,158.23,350.25,158.42,350.25,158.42z"/>
			</g>
			<g>
				<path class="st4" d="M378.67,317.04c-6.27-18.02-39.35-102.05-39.35-102.05s13.69-24.34,15.15-27.23
					c2.66-5.27,4.99-10.26,3.9-14.81c-1.66-6.93-12.49-11.53-12.49-11.53c-4.7-4.18-8.69,5.62-8.69,5.62
					c-7.9-0.78-7.8,5.64-7.8,5.64c-2.09-1.57-13.07-3.03-12.82,11.15l5.18-2.85l5.87,1.58c0,0-19.9,22.24-19.9,32.17
					c0,9.19,25.3,145.59,50.65,164.37l0,0l0,0c0,0,3.45,2.01,5.17,2.12c6.06,1.87,16.41,3.12,25.28-5.4
					C406.07,359.25,402.42,311.51,378.67,317.04z"/>
			</g>
			<g>
				<path d="M311.58,239.64c-0.29,0-0.54-0.2-0.59-0.49c-2.31-12.21-3.86-22.02-3.86-24.42c0-10.04,19.24-31.65,20.06-32.57
					c0.22-0.25,0.6-0.27,0.85-0.05c0.25,0.22,0.27,0.6,0.05,0.85c-0.2,0.22-19.75,22.18-19.75,31.76c0,1.88,1.2,10.25,3.84,24.2
					c0.06,0.33-0.15,0.64-0.48,0.71C311.65,239.64,311.61,239.64,311.58,239.64z"/>
			</g>
			<g>
				<path d="M316.58,184.44c-0.33,0-0.6-0.26-0.6-0.59c-0.13-7.43,2.78-10.49,5.25-11.75c2.76-1.41,5.93-1.07,7.67-0.37
					c0.16-0.96,0.62-2.46,1.9-3.63c1.41-1.3,3.45-1.87,6.03-1.69c0.63-1.39,2.84-5.82,5.85-6.53c1.26-0.29,2.47,0.08,3.62,1.09
					c0.25,0.22,0.27,0.6,0.05,0.85c-0.22,0.25-0.6,0.27-0.85,0.05c-0.85-0.75-1.68-1.02-2.54-0.82c-2.4,0.56-4.56,4.68-5.19,6.21
					c-0.1,0.25-0.35,0.39-0.62,0.37c-2.44-0.24-4.3,0.21-5.52,1.33c-1.61,1.48-1.61,3.68-1.61,3.7c0,0.23-0.13,0.44-0.33,0.55
					c-0.21,0.1-0.45,0.08-0.64-0.05c-0.84-0.63-4.23-1.55-7.27,0.01c-3.1,1.58-4.69,5.27-4.59,10.65c0.01,0.33-0.26,0.61-0.59,0.62
					C316.59,184.44,316.58,184.44,316.58,184.44z"/>
			</g>
			<g>
				<path d="M335.97,177.27c-0.11,0-0.22-0.03-0.32-0.09l-6.43-4c-0.28-0.18-0.37-0.55-0.19-0.83c0.18-0.28,0.55-0.37,0.83-0.19
					l6.43,4c0.28,0.18,0.37,0.55,0.19,0.83C336.37,177.17,336.17,177.27,335.97,177.27z"/>
			</g>
			<g>
				<path d="M343.63,171.65c-0.11,0-0.22-0.03-0.32-0.09l-6.43-4c-0.28-0.18-0.37-0.55-0.19-0.83c0.18-0.28,0.55-0.37,0.83-0.19
					l6.43,4c0.28,0.18,0.37,0.55,0.19,0.83C344.03,171.54,343.84,171.65,343.63,171.65z"/>
			</g>
			<g>
				<path class="st6" d="M378.67,317.04c8.54,9.9,6.95,64.67-4.45,68.37c19.29,0.46,27.25-12.64,28.39-24.19
					C403.74,349.67,402.34,307.87,378.67,317.04z"/>
			</g>
		</g>
		<g>
			<g>
				<g>
					<path d="M201.38,385.41h70.33c2.04,0,3.7-1.66,3.7-3.7l0,0c0-2.04-1.66-3.7-3.7-3.7h-70.33c-2.04,0-3.7,1.66-3.7,3.7l0,0
						C197.67,383.76,199.33,385.41,201.38,385.41z"/>
				</g>
				<g>
					<path class="st3" d="M35.15,385.41h184.16c2.04,0,3.7-1.66,3.7-3.7l0,0c0-2.04-1.66-3.7-3.7-3.7H35.15
						c-2.04,0-3.7,1.66-3.7,3.7l0,0C31.45,383.76,33.1,385.41,35.15,385.41z"/>
				</g>
				<g>
					<path d="M209.86,347.68h5.75c8.24,0,14.92-6.68,14.92-14.92v-91.09c0-8.24-6.68-14.92-14.92-14.92h-5.75
						c-8.24,0-14.92,6.68-14.92,14.92v91.09C194.94,341,201.62,347.68,209.86,347.68z"/>
				</g>
				<g>
					<path class="st3" d="M46.37,347.68h163.27c8.24,0,14.92-6.68,14.92-14.92v-91.09c0-8.24-6.68-14.92-14.92-14.92H46.37
						c-8.24,0-14.92,6.68-14.92,14.92v91.09C31.45,341,38.13,347.68,46.37,347.68z"/>
				</g>
				<g>
					
						<rect x="110.66" y="347.68" transform="matrix(-1 -1.224647e-16 1.224647e-16 -1 252.6499 733.0905)" class="st3" width="31.34" height="37.73"/>
				</g>
				<g class="st9">
					<path class="st8" d="M111.18,287.21c0,9.29,7.53,16.82,16.82,16.82c9.29,0,16.82-7.53,16.82-16.82
						c0-9.29-7.53-16.82-16.82-16.82C118.71,270.39,111.18,277.92,111.18,287.21z"/>
				</g>
				<g>
					<path d="M189.15,348.28H46.37c-8.56,0-15.53-6.97-15.53-15.53v-91.09c0-8.56,6.96-15.53,15.53-15.53c0.33,0,0.6,0.27,0.6,0.6
						s-0.27,0.6-0.6,0.6c-7.89,0-14.32,6.42-14.32,14.32v91.09c0,7.9,6.42,14.32,14.32,14.32h142.78c0.33,0,0.6,0.27,0.6,0.6
						C189.76,348.01,189.49,348.28,189.15,348.28z"/>
				</g>
				<g>
					<path d="M35.15,386.02c-2.37,0-4.31-1.93-4.31-4.3c0-2.37,1.93-4.31,4.31-4.31h118.74c0.33,0,0.6,0.27,0.6,0.6
						c0,0.33-0.27,0.6-0.6,0.6H35.15c-1.71,0-3.1,1.39-3.1,3.1c0,1.71,1.39,3.1,3.1,3.1c0.33,0,0.6,0.27,0.6,0.6
						C35.75,385.75,35.48,386.02,35.15,386.02z"/>
				</g>
				<g>
					<g>
						<path class="st3" d="M321.32,385.79h-43.5c0-8.05,9.74-14.57,21.75-14.57C311.58,371.21,321.32,377.74,321.32,385.79z"/>
					</g>
					<g>
						<path d="M284.02,386.87c-0.02,0-0.04,0-0.05,0c-0.33-0.03-0.58-0.32-0.55-0.65c0.51-5.8,4.27-10.82,9.15-12.2
							c0.32-0.09,0.66,0.1,0.75,0.42c0.09,0.32-0.1,0.66-0.42,0.75c-4.41,1.25-7.81,5.83-8.28,11.14
							C284.59,386.63,284.33,386.87,284.02,386.87z"/>
					</g>
				</g>
			</g>
			<g>
				<g>
					<path class="st10" d="M420.37,319.69c-9.43,2.85-18.25,1.27-19.69-3.51c-1.44-4.79,5.03-10.97,14.46-13.82
						c9.43-2.85,18.25-1.27,19.69,3.51C436.27,310.66,429.8,316.84,420.37,319.69z"/>
				</g>
				<g>
					<path d="M450.22,335.39c-0.33,0-0.6-0.27-0.6-0.6v-8.8c-0.01-7.02-2.38-12.48-6.66-15.39c-5.53-3.74-13.93-3.41-24.98,0.98
						c-0.31,0.12-0.66-0.03-0.79-0.34c-0.12-0.31,0.03-0.66,0.34-0.79c11.44-4.55,20.23-4.84,26.1-0.86
						c4.63,3.13,7.18,8.95,7.19,16.39v8.8C450.83,335.12,450.56,335.39,450.22,335.39z"/>
				</g>
				<g>
					<path class="st10" d="M477.59,288.3c-7.13,6.8-15.71,9.37-19.16,5.76c-3.45-3.62-0.47-12.06,6.66-18.86
						c7.13-6.8,15.71-9.37,19.16-5.76C487.7,273.06,484.72,281.51,477.59,288.3z"/>
				</g>
				<g>
					<path d="M450.29,324.97C450.28,324.97,450.28,324.97,450.29,324.97c-0.34,0-0.61-0.27-0.6-0.61
						c0.04-19.47,3.02-25.5,21.24-43.05c0.24-0.23,0.62-0.22,0.86,0.02c0.23,0.24,0.22,0.62-0.02,0.85
						c-18.1,17.43-20.83,22.94-20.87,42.18C450.89,324.7,450.62,324.97,450.29,324.97z"/>
				</g>
				<g>
					<path class="st11" d="M477,329.87c-0.07,0.11-0.15,0.21-0.23,0.32c-4.1,5.68-4.1,13.27,0,18.95c2.5,3.46,3.92,7.45,3.92,11.7
						c0,13.29-13.96,24.07-31.17,24.07c-17.22,0-31.17-10.78-31.17-24.07c0-4.24,1.42-8.23,3.92-11.7c4.1-5.68,4.1-13.27,0-18.95
						c-0.08-0.11-0.15-0.21-0.23-0.32c-3.34-4.8,0.32-11.38,6.16-11.38h42.63C476.68,318.49,480.34,325.07,477,329.87z"/>
				</g>
				<g>
					<path class="st10" d="M440.35,271.32c6.85,7.08,9.49,15.64,5.89,19.11c-3.59,3.48-12.06,0.55-18.91-6.53
						c-6.85-7.08-9.49-15.64-5.89-19.11C425.04,261.32,433.5,264.24,440.35,271.32z"/>
				</g>
				<g>
					<path class="st10" d="M429.93,344.79c-4.31,8.94-11.49,14.41-16.03,12.22c-4.54-2.19-4.72-11.21-0.4-20.15
						c4.31-8.94,11.49-14.41,16.03-12.22C434.06,326.82,434.25,335.85,429.93,344.79z"/>
				</g>
				<g>
					<path class="st10" d="M474.06,360.61c-2.21,9.68-7.99,16.61-12.9,15.49c-4.91-1.12-7.1-9.88-4.88-19.56
						c2.21-9.68,7.99-16.61,12.9-15.49C474.09,342.18,476.27,350.93,474.06,360.61z"/>
				</g>
				<g>
					<path class="st10" d="M469.45,254.94c-3.21,9.39-9.68,15.69-14.45,14.06c-4.77-1.63-6.03-10.57-2.82-19.96
						c3.21-9.39,9.68-15.69,14.45-14.06C471.4,236.61,472.66,245.55,469.45,254.94z"/>
				</g>
				<g>
					<path class="st10" d="M476.61,329.64c-8.15-5.53-12.49-13.36-9.68-17.5c2.81-4.14,11.69-3.01,19.84,2.52
						c8.15,5.53,12.49,13.36,9.68,17.5C493.65,336.29,484.76,335.17,476.61,329.64z"/>
				</g>
				<g>
					<path d="M481.69,322.75c-0.13,0-0.26-0.04-0.37-0.12c-12.04-9.2-19.23-12.73-24.05-11.81c-2.39,0.46-4.34,2.06-6.15,5.06
						c-0.17,0.29-0.54,0.38-0.83,0.21c-0.29-0.17-0.38-0.54-0.21-0.83c2-3.32,4.21-5.1,6.96-5.63c5.19-0.99,12.67,2.61,25.01,12.04
						c0.27,0.2,0.32,0.58,0.11,0.85C482.05,322.67,481.87,322.75,481.69,322.75z"/>
				</g>
				<g>
					<path d="M465.17,359.18c-0.1,0-0.2-0.02-0.29-0.07c-0.29-0.16-0.4-0.53-0.24-0.82c10.05-18.23,2.8-34.66-5.26-40.02
						c-3.5-2.33-6.75-2.27-8.68,0.17c-0.21,0.26-0.59,0.31-0.85,0.1c-0.26-0.21-0.31-0.59-0.1-0.85c2.33-2.94,6.27-3.11,10.3-0.43
						c8.44,5.61,16.07,22.71,5.65,41.61C465.59,359.07,465.38,359.18,465.17,359.18z"/>
				</g>
				<g>
					<path d="M422.46,338.96c-0.08,0-0.16-0.02-0.24-0.05c-0.31-0.13-0.45-0.49-0.32-0.79c4.86-11.44,11.45-19.04,18.55-21.38
						c3.21-1.06,6.41-0.95,9.13,0.31c-0.47-11.82-2.9-26.68-16.15-38.99c-0.24-0.23-0.26-0.61-0.03-0.85
						c0.23-0.24,0.61-0.26,0.85-0.03c13.97,12.97,16.2,28.66,16.57,40.87c0.01,0.22-0.11,0.43-0.3,0.54c-0.19,0.11-0.43,0.11-0.61,0
						c-2.64-1.55-5.78-1.79-9.08-0.7c-3.92,1.3-11.45,5.71-17.82,20.71C422.92,338.82,422.7,338.96,422.46,338.96z"/>
				</g>
				<g>
					<path d="M450.22,318.67c-0.33,0-0.6-0.27-0.6-0.6v-0.16c0-31.49,3.79-55.01,10.68-66.23c0.18-0.29,0.55-0.37,0.83-0.2
						c0.28,0.17,0.37,0.55,0.2,0.83c-6.77,11.03-10.5,34.33-10.5,65.59v0.16C450.83,318.4,450.56,318.67,450.22,318.67z"/>
				</g>
			</g>
			<g>
				<g>
					<rect x="2.69" y="385.41" class="st12" width="484.45" height="16.38"/>
				</g>
			</g>
			<g>
				<g>
					<g>
						<path class="st8" d="M389.83,375.81c4.97,0,15.47-2.97,16.09-9.26h33.24c0,0-4.38,9.26-10.81,9.26
							C421.91,375.81,389.83,375.81,389.83,375.81"/>
					</g>
				</g>
				<g>
					<g>
						<rect x="389.83" y="375.81" class="st8" width="16.51" height="9.26"/>
					</g>
				</g>
				<g>
					<g>
						<rect x="406.34" y="375.81" class="st8" width="33.02" height="9.26"/>
					</g>
				</g>
				<g>
					<path d="M430.58,380.03h-12.59c-0.33,0-0.6-0.27-0.6-0.6c0-0.33,0.27-0.6,0.6-0.6h12.59c0.33,0,0.6,0.27,0.6,0.6
						C431.18,379.76,430.91,380.03,430.58,380.03z"/>
				</g>
				<g>
					<path d="M427.15,382.45h-20.81c-0.33,0-0.6-0.27-0.6-0.6c0-0.33,0.27-0.6,0.6-0.6h20.81c0.33,0,0.6,0.27,0.6,0.6
						C427.76,382.18,427.49,382.45,427.15,382.45z"/>
				</g>
				<g>
					<path d="M403.21,382.45h-5.92c-0.33,0-0.6-0.27-0.6-0.6c0-0.33,0.27-0.6,0.6-0.6h5.92c0.33,0,0.6,0.27,0.6,0.6
						C403.82,382.18,403.55,382.45,403.21,382.45z"/>
				</g>
				<g>
					<path d="M395.75,380.03h-5.92c-0.33,0-0.6-0.27-0.6-0.6c0-0.33,0.27-0.6,0.6-0.6h5.92c0.33,0,0.6,0.27,0.6,0.6
						C396.36,379.76,396.09,380.03,395.75,380.03z"/>
				</g>
				<g>
					<path d="M439.36,376.41h-49.53c-0.33,0-0.6-0.27-0.6-0.6c0-0.33,0.27-0.6,0.6-0.6h49.53c0.33,0,0.6,0.27,0.6,0.6
						C439.96,376.14,439.69,376.41,439.36,376.41z"/>
				</g>
				<g>
					<path d="M406.34,385.67c-0.33,0-0.6-0.27-0.6-0.6v-9.26c0-0.33,0.27-0.6,0.6-0.6c0.33,0,0.6,0.27,0.6,0.6v9.26
						C406.94,385.4,406.67,385.67,406.34,385.67z"/>
				</g>
			</g>
		</g>
	</g>
</g>
</svg>
