<?xml version="1.0" encoding="utf-8"?>
<!-- Generator: Adobe Illustrator 25.2.0, SVG Export Plug-In . SVG Version: 6.00 Build 0)  -->
<svg version="1.1" id="Layer_1" xmlns="http://www.w3.org/2000/svg" xmlns:xlink="http://www.w3.org/1999/xlink" x="0px" y="0px"
	 viewBox="0 0 500 404.5" style="enable-background:new 0 0 500 404.5;" xml:space="preserve">
<style type="text/css">
	.st0{display:none;}
	.st1{display:inline;fill:#FFFFFF;}
	.st2{fill:#C7E5FC;}
	.st3{fill:#FFFFFF;}
	.st4{fill:#ED9D88;}
	.st5{fill:#7886FF;}
	.st6{fill:#5EA3E6;}
	.st7{fill:#101229;}
	.st8{fill:#C60013;}
	.st9{fill:#38AB9B;}
	.st10{fill:#FFBA3C;}
	.st11{fill:#4A83C3;}
</style>
<g id="BACKGROUND" class="st0">
	<rect y="-95.5" class="st1" width="500" height="500"/>
</g>
<g id="OBJECTS">
	<g>
		<path class="st2" d="M441.2,394.4H50V118.7c0-64.1,51.9-116,116-116h159.2c64,0,116,51.9,116,116V394.4z"/>
		<g>
			<path class="st3" d="M216.1,145c0-21.8-7.2-39.5-54.2-39.5s-54.2,17.7-54.2,39.5s7.2,39.5,54.2,39.5c9.6,0,17.5-0.7,24-2.1
				c9.1,8.2,20.1,17,23.8,15.4c3.8-1.7,1.9-15.9-0.4-27.7C214.7,163.2,216.1,154.5,216.1,145z"/>
		</g>
		<g>
			<g>
				<g>
					<g>
						<path class="st4" d="M175.8,386.1c44.1-0.3,48,0.7,55.9-23.9C238.3,341.6,255,279,255,279c5-22.9,1.1-32.2-23.5-21.9
							c-20.6,8.6-38.4,74.7-44.1,93.2c0,0-90.1,11-96.5,11.1c-12.7,0.3-37.1,4.2-49.6,10.6c-12.5,3-10.7,7.1-10.7,7.1
							c-4.5,1.4-6.9,7.5-1.4,7C34.7,385.8,129.4,386.5,175.8,386.1z"/>
					</g>
				</g>
			</g>
			<g>
				<g>
					<path d="M195,324.8c0,0-0.9,1.8-1.6,5.4c0,0,29.8,14.1,43.4,15.1c0,0,1.6-6.1,2-7C240,335.1,195,324.8,195,324.8z"/>
				</g>
			</g>
			<g>
				<g>
					<path class="st5" d="M189.9,326.1c8.3-35.1,34.3-75.9,47.6-81.4c24.6-10.3,26.7,12.7,21.8,35.6c-7.5,35.6-13.3,59.2-13.3,59.2
						S203.4,332.7,189.9,326.1z"/>
				</g>
			</g>
			<g>
				<g>
					<path d="M30.7,379.8c-0.3,0-0.5-0.2-0.6-0.4c-0.1-0.3,0.1-0.7,0.4-0.8c0.8-0.2,20.3-6.2,31.1-5.3c0.3,0,0.6,0.3,0.5,0.6
						c0,0.3-0.3,0.6-0.7,0.5c-10.6-0.9-30.4,5.2-30.6,5.2C30.8,379.8,30.8,379.8,30.7,379.8z"/>
				</g>
			</g>
			<g>
				<g>
					<path d="M39.7,373.5c-0.3,0-0.5-0.2-0.6-0.4c-0.1-0.3,0.1-0.7,0.4-0.8c0.8-0.2,18.6-5.2,22.8-5.3c0.3,0,0.6,0.2,0.6,0.6
						c0,0.3-0.2,0.6-0.6,0.6c-4.1,0.1-22.3,5.2-22.5,5.3C39.8,373.5,39.7,373.5,39.7,373.5z"/>
				</g>
			</g>
		</g>
		<g>
			<g>
				<path class="st4" d="M277.6,211.9l-1.8,23.3l-15.8,5.2c0,0,4.7,36.1,36.8,34.5S333,230,333,230h-16.8l6-38.5L277.6,211.9z"/>
			</g>
			<g>
				<path d="M276.4,227.4c0,0,26.3,0,37.2-19.8l-36,4.4L276.4,227.4z"/>
			</g>
			<g>
				<path class="st6" d="M388.8,344.2l-11.5,41.2l-169.2-0.2c0,0,11.9-125,27.6-136.7c15.8-11.7,32.7-10.2,33.8-11.8
					c0,0-8.7,19.8,19.1,15.5s35-22.3,35-22.3s26.2,0.5,42,4.8C381.3,239,388.8,344.2,388.8,344.2z"/>
			</g>
			<g>
				<path d="M228,382.3C228,382.3,228,382.3,228,382.3c-0.4,0-0.6-0.3-0.6-0.7c0.1-0.6,6.2-60.2,15.3-100.9c0.1-0.3,0.4-0.5,0.7-0.5
					c0.3,0.1,0.5,0.4,0.5,0.7c-9.1,40.7-15.2,100.2-15.3,100.8C228.6,382.1,228.3,382.3,228,382.3z"/>
			</g>
		</g>
		<g>
			<g>
				<g>
					<path class="st7" d="M363.8,166.2c-0.1-8.4-6.1-15.3-13.8-16.5c1.8-4.3,2.8-9.1,2.7-14.1c-0.3-18.4-14.8-33.1-32.4-32.8
						s-31.5,15.5-31.2,33.9c0.3,18.4,14.8,33.1,32.4,32.8c3.5-0.1,6.8-0.7,9.9-1.8c0.1,1.4,0.3,2.7,0.7,4c-7.7,1.5-13.4,8.6-13.2,17
						c0.2,9.4,7.6,16.9,16.5,16.7c9-0.2,16.1-7.9,15.9-17.3c0-1.7-0.3-3.4-0.8-4.9C358.2,181.8,363.9,174.7,363.8,166.2z"/>
				</g>
			</g>
			<g>
				<g>
					<g>
						<path class="st4" d="M249.9,164.1c-3.9,42.5,8.8,53.6,38,54.3s46.6-23.4,47.4-53.8c0.8-30.4-15.2-55.5-44.5-56.3
							C261.6,107.5,252.7,133.8,249.9,164.1z"/>
					</g>
				</g>
				<g>
					<g>
						<g>
							<g>
								<path class="st7" d="M305.7,150.1c1.4-0.2,2.4-1.4,2.3-2.8s-1.4-2.4-2.8-2.3l-7.3,0.8c-1.4,0.2-2.4,1.4-2.3,2.8
									s1.4,2.4,2.8,2.3L305.7,150.1z"/>
							</g>
						</g>
						<g>
							<g>
								<path class="st7" d="M257.9,150.5c-1.4-0.2-2.3-1.6-2.1-2.9s1.6-2.3,2.9-2.1l7.2,1.2c1.4,0.2,2.3,1.6,2.1,2.9
									s-1.5,2.3-3,2.1L257.9,150.5z"/>
							</g>
						</g>
					</g>
					<g>
						<g>
							<path d="M279.4,180.6C279.4,180.6,279.4,180.6,279.4,180.6c-4-0.1-7.2-3.4-7.1-7.4c0-1.9,0.9-3.7,2.3-5.1
								c1.4-1.3,3.2-2,5.2-2c0.3,0,0.6,0.3,0.6,0.6s-0.3,0.6-0.6,0.6c-1.6-0.1-3.1,0.5-4.3,1.6c-1.2,1.1-1.8,2.6-1.9,4.2
								s0.5,3.1,1.6,4.3c1.1,1.2,2.6,1.8,4.2,1.9c0.3,0,0.6,0.3,0.6,0.6C280,180.4,279.7,180.6,279.4,180.6z"/>
						</g>
					</g>
					<g>
						<g>
							<path d="M282.4,196.2c-0.1,0-0.3,0-0.4,0c-4.8-0.1-7.5-2.4-7.6-2.4c-0.3-0.2-0.3-0.6-0.1-0.9c0.2-0.3,0.6-0.3,0.9-0.1
								c0,0,2.5,2.1,6.9,2.2c4.4,0.1,7.3-1.8,7.3-1.8c0.3-0.2,0.6-0.1,0.8,0.2c0.2,0.3,0.1,0.6-0.2,0.8
								C289.8,194.2,286.9,196.2,282.4,196.2z"/>
						</g>
					</g>
				</g>
				<g>
					<g>
						<g>
							<path d="M298.2,165.2c-0.1,2.7,0.6,4.8,3.3,4.9s3.5-2.1,3.6-4.7c0.1-2.7-0.6-4.8-3.3-4.9S298.3,162.5,298.2,165.2z"/>
						</g>
					</g>
				</g>
				<g>
					<g>
						<g>
							<path d="M263,164c0.1,2.7-0.6,4.9-3.2,5s-3.5-2-3.6-4.7c-0.1-2.7,0.6-4.9,3.2-5S262.9,161.4,263,164z"/>
						</g>
					</g>
				</g>
				<g>
					<g>
						<g>
							<g>
								<path class="st4" d="M326.5,164.7c-2.2,7.8,2.4,15.9,10.2,18s15.9-2.4,18-10.2s-2.4-15.9-10.2-18
									C336.7,152.3,328.6,156.9,326.5,164.7z"/>
							</g>
						</g>
						<g>
							<g>
								<g>
									<path d="M334.7,169c0,0-0.1,0-0.2,0c-0.3-0.1-0.5-0.4-0.4-0.7c1.2-4.3,5.6-6.8,9.9-5.6c0.3,0.1,0.5,0.4,0.4,0.7
										s-0.4,0.5-0.7,0.4c-3.6-1-7.4,1.1-8.4,4.8C335.2,168.9,335,169,334.7,169z"/>
								</g>
							</g>
							<g>
								<g>
									<path d="M341.2,175.7c0,0-0.1,0-0.1,0c-0.3-0.1-0.5-0.4-0.4-0.7c1.3-5.1-3.4-10.1-3.5-10.1c-0.2-0.2-0.2-0.6,0-0.9
										c0.2-0.2,0.6-0.2,0.9,0c0.2,0.2,5.3,5.5,3.8,11.3C341.7,175.5,341.5,175.7,341.2,175.7z"/>
								</g>
							</g>
						</g>
					</g>
				</g>
			</g>
			<g>
				<g>
					<path class="st7" d="M308.4,144.3c4.4-1.2,7.9-3.9,10.2-7.2c5.3,12.1,13.4,27.3,19.3,25.5c9.6-2.8,9.1-22.6,6.3-29.9
						c-3.1-8.3-11.8-16-22.7-21.5c2.9-3.9,4-9.2,2.4-14.4c-2.6-8.5-11.3-13.3-19.4-10.8c-4.9,1.5-8.4,5.3-9.9,10
						c0-0.1,0-0.2-0.1-0.3c-2.8-8.9-13-13.6-23-10.5c-9.9,3.1-15.7,12.8-13,21.7c0.2,0.7,0.5,1.3,0.7,1.9c0,0-18.8,1.6-19.8,14.2
						s15.3,14,15.3,14s10.7,15.3,32,6.2C287,143,298.1,147.2,308.4,144.3z"/>
				</g>
			</g>
		</g>
		<g>
			<g>
				<path d="M374.2,385.4c-7.7,0-3.2-24.2-3.2-24.2h12.5C383.5,361.2,383.5,385.4,374.2,385.4z"/>
			</g>
			<g>
				<path class="st6" d="M353.8,283.8l-0.6-51c36.3,2.5,46.1,24.3,49.4,53.4c4.7,41.8,0.1,75,0.1,75l-58.8-20.4L353.8,283.8"/>
			</g>
			<g>
				<path class="st8" d="M350.2,158.4c-6.7,1-35.9,25.2-38.5,27.9s-10.1,24-10.1,26.5s6.1,1,6.1,1l44.2-29.2c0,0,3.1-19.9,2.4-23.1
					C353.6,158.2,350.2,158.4,350.2,158.4z"/>
			</g>
			<g>
				<path class="st4" d="M378.7,317c-6.3-18-39.4-102.1-39.4-102.1s13.7-24.3,15.1-27.2c2.7-5.3,5-10.3,3.9-14.8
					c-1.7-6.9-12.5-11.5-12.5-11.5c-4.7-4.2-8.7,5.6-8.7,5.6c-7.9-0.8-7.8,5.6-7.8,5.6c-2.1-1.6-13.1-3-12.8,11.1l5.2-2.9l5.9,1.6
					c0,0-19.9,22.2-19.9,32.2c0,9.2,25.3,145.6,50.6,164.4l0,0l0,0c0,0,3.5,2,5.2,2.1c6.1,1.9,16.4,3.1,25.3-5.4
					C406.1,359.2,402.4,311.5,378.7,317z"/>
			</g>
			<g>
				<path d="M311.6,239.6c-0.3,0-0.5-0.2-0.6-0.5c-2.3-12.2-3.9-22-3.9-24.4c0-10,19.2-31.6,20.1-32.6c0.2-0.2,0.6-0.3,0.9-0.1
					s0.3,0.6,0,0.9c-0.2,0.2-19.8,22.2-19.8,31.8c0,1.9,1.2,10.2,3.8,24.2c0.1,0.3-0.1,0.6-0.5,0.7
					C311.6,239.6,311.6,239.6,311.6,239.6z"/>
			</g>
			<g>
				<path d="M316.6,184.4c-0.3,0-0.6-0.3-0.6-0.6c-0.1-7.4,2.8-10.5,5.2-11.8c2.8-1.4,5.9-1.1,7.7-0.4c0.2-1,0.6-2.5,1.9-3.6
					c1.4-1.3,3.5-1.9,6-1.7c0.6-1.4,2.8-5.8,5.9-6.5c1.3-0.3,2.5,0.1,3.6,1.1c0.2,0.2,0.3,0.6,0,0.9s-0.6,0.3-0.9,0.1
					c-0.9-0.8-1.7-1-2.5-0.8c-2.4,0.6-4.6,4.7-5.2,6.2c-0.1,0.2-0.4,0.4-0.6,0.4c-2.4-0.2-4.3,0.2-5.5,1.3c-1.6,1.5-1.6,3.7-1.6,3.7
					c0,0.2-0.1,0.4-0.3,0.6c-0.2,0.1-0.5,0.1-0.6-0.1c-0.8-0.6-4.2-1.6-7.3,0c-3.1,1.6-4.7,5.3-4.6,10.6
					C317.2,184.1,316.9,184.4,316.6,184.4C316.6,184.4,316.6,184.4,316.6,184.4z"/>
			</g>
			<g>
				<path d="M336,177.3c-0.1,0-0.2,0-0.3-0.1l-6.4-4c-0.3-0.2-0.4-0.6-0.2-0.8s0.5-0.4,0.8-0.2l6.4,4c0.3,0.2,0.4,0.6,0.2,0.8
					C336.4,177.2,336.2,177.3,336,177.3z"/>
			</g>
			<g>
				<path d="M343.6,171.6c-0.1,0-0.2,0-0.3-0.1l-6.4-4c-0.3-0.2-0.4-0.6-0.2-0.8s0.5-0.4,0.8-0.2l6.4,4c0.3,0.2,0.4,0.6,0.2,0.8
					C344,171.5,343.8,171.6,343.6,171.6z"/>
			</g>
			<g>
				<path class="st6" d="M378.7,317c8.5,9.9,7,64.7-4.5,68.4c19.3,0.5,27.2-12.6,28.4-24.2C403.7,349.7,402.3,307.9,378.7,317z"/>
			</g>
		</g>
		<g>
			<g>
				<g>
					<path d="M201.4,385.4h70.3c2,0,3.7-1.7,3.7-3.7l0,0c0-2-1.7-3.7-3.7-3.7h-70.3c-2,0-3.7,1.7-3.7,3.7l0,0
						C197.7,383.8,199.3,385.4,201.4,385.4z"/>
				</g>
				<g>
					<path class="st3" d="M35.2,385.4h184.2c2,0,3.7-1.7,3.7-3.7l0,0c0-2-1.7-3.7-3.7-3.7H35.2c-2,0-3.7,1.7-3.7,3.7l0,0
						C31.5,383.8,33.1,385.4,35.2,385.4z"/>
				</g>
				<g>
					<path d="M209.9,347.7h5.8c8.2,0,14.9-6.7,14.9-14.9v-91.1c0-8.2-6.7-14.9-14.9-14.9h-5.8c-8.2,0-14.9,6.7-14.9,14.9v91.1
						C194.9,341,201.6,347.7,209.9,347.7z"/>
				</g>
				<g>
					<path class="st3" d="M46.4,347.7h163.3c8.2,0,14.9-6.7,14.9-14.9v-91.1c0-8.2-6.7-14.9-14.9-14.9H46.4
						c-8.2,0-14.9,6.7-14.9,14.9v91.1C31.5,341,38.1,347.7,46.4,347.7z"/>
				</g>
				<g>
					<rect x="110.6" y="347.7" class="st3" width="31.3" height="37.7"/>
				</g>
				<g>
					<path class="st8" d="M111.2,287.2c0,9.3,7.5,16.8,16.8,16.8s16.8-7.5,16.8-16.8s-7.5-16.8-16.8-16.8
						C118.7,270.4,111.2,277.9,111.2,287.2z"/>
				</g>
				<g>
					<path d="M189.1,348.3H46.4c-8.6,0-15.5-7-15.5-15.5v-91.1c0-8.6,7-15.5,15.5-15.5c0.3,0,0.6,0.3,0.6,0.6s-0.3,0.6-0.6,0.6
						c-7.9,0-14.3,6.4-14.3,14.3v91.1c0,7.9,6.4,14.3,14.3,14.3h142.8c0.3,0,0.6,0.3,0.6,0.6C189.8,348,189.5,348.3,189.1,348.3z"/>
				</g>
				<g>
					<path d="M35.2,386c-2.4,0-4.3-1.9-4.3-4.3s1.9-4.3,4.3-4.3h118.7c0.3,0,0.6,0.3,0.6,0.6c0,0.3-0.3,0.6-0.6,0.6H35.2
						c-1.7,0-3.1,1.4-3.1,3.1s1.4,3.1,3.1,3.1c0.3,0,0.6,0.3,0.6,0.6C35.8,385.8,35.5,386,35.2,386z"/>
				</g>
				<g>
					<g>
						<path class="st3" d="M321.3,385.8h-43.5c0-8,9.7-14.6,21.8-14.6C311.6,371.2,321.3,377.7,321.3,385.8z"/>
					</g>
					<g>
						<path d="M284,386.9C284,386.9,284,386.9,284,386.9c-0.4,0-0.6-0.3-0.6-0.6c0.5-5.8,4.3-10.8,9.1-12.2c0.3-0.1,0.7,0.1,0.8,0.4
							s-0.1,0.7-0.4,0.8c-4.4,1.2-7.8,5.8-8.3,11.1C284.6,386.6,284.3,386.9,284,386.9z"/>
					</g>
				</g>
			</g>
			<g>
				<g>
					<path class="st9" d="M420.4,319.7c-9.4,2.9-18.2,1.3-19.7-3.5c-1.4-4.8,5-11,14.5-13.8s18.2-1.3,19.7,3.5
						C436.3,310.7,429.8,316.8,420.4,319.7z"/>
				</g>
				<g>
					<path d="M450.2,335.4c-0.3,0-0.6-0.3-0.6-0.6V326c0-7-2.4-12.5-6.7-15.4c-5.5-3.7-13.9-3.4-25,1c-0.3,0.1-0.7,0-0.8-0.3
						c-0.1-0.3,0-0.7,0.3-0.8c11.4-4.5,20.2-4.8,26.1-0.9c4.6,3.1,7.2,9,7.2,16.4v8.8C450.8,335.1,450.6,335.4,450.2,335.4z"/>
				</g>
				<g>
					<path class="st9" d="M477.6,288.3c-7.1,6.8-15.7,9.4-19.2,5.8c-3.5-3.6-0.5-12.1,6.7-18.9s15.7-9.4,19.2-5.8
						C487.7,273.1,484.7,281.5,477.6,288.3z"/>
				</g>
				<g>
					<path d="M450.3,325C450.3,325,450.3,325,450.3,325c-0.3,0-0.6-0.3-0.6-0.6c0-19.5,3-25.5,21.2-43c0.2-0.2,0.6-0.2,0.9,0
						c0.2,0.2,0.2,0.6,0,0.9c-18.1,17.4-20.8,22.9-20.9,42.2C450.9,324.7,450.6,325,450.3,325z"/>
				</g>
				<g>
					<path class="st10" d="M477,329.9c-0.1,0.1-0.1,0.2-0.2,0.3c-4.1,5.7-4.1,13.3,0,19c2.5,3.5,3.9,7.5,3.9,11.7
						c0,13.3-14,24.1-31.2,24.1c-17.2,0-31.2-10.8-31.2-24.1c0-4.2,1.4-8.2,3.9-11.7c4.1-5.7,4.1-13.3,0-19
						c-0.1-0.1-0.1-0.2-0.2-0.3c-3.3-4.8,0.3-11.4,6.2-11.4h42.6C476.7,318.5,480.3,325.1,477,329.9z"/>
				</g>
				<g>
					<path class="st9" d="M440.4,271.3c6.9,7.1,9.5,15.6,5.9,19.1c-3.6,3.5-12.1,0.5-18.9-6.5s-9.5-15.6-5.9-19.1
						C425,261.3,433.5,264.2,440.4,271.3z"/>
				</g>
				<g>
					<path class="st9" d="M429.9,344.8c-4.3,8.9-11.5,14.4-16,12.2s-4.7-11.2-0.4-20.1c4.3-8.9,11.5-14.4,16-12.2
						C434.1,326.8,434.2,335.9,429.9,344.8z"/>
				</g>
				<g>
					<path class="st9" d="M474.1,360.6c-2.2,9.7-8,16.6-12.9,15.5s-7.1-9.9-4.9-19.6c2.2-9.7,8-16.6,12.9-15.5
						C474.1,342.2,476.3,350.9,474.1,360.6z"/>
				</g>
				<g>
					<path class="st9" d="M469.5,254.9c-3.2,9.4-9.7,15.7-14.5,14.1c-4.8-1.6-6-10.6-2.8-20c3.2-9.4,9.7-15.7,14.5-14.1
						C471.4,236.6,472.7,245.6,469.5,254.9z"/>
				</g>
				<g>
					<path class="st9" d="M476.6,329.6c-8.1-5.5-12.5-13.4-9.7-17.5s11.7-3,19.8,2.5s12.5,13.4,9.7,17.5
						C493.6,336.3,484.8,335.2,476.6,329.6z"/>
				</g>
				<g>
					<path d="M481.7,322.8c-0.1,0-0.3,0-0.4-0.1c-12-9.2-19.2-12.7-24-11.8c-2.4,0.5-4.3,2.1-6.1,5.1c-0.2,0.3-0.5,0.4-0.8,0.2
						c-0.3-0.2-0.4-0.5-0.2-0.8c2-3.3,4.2-5.1,7-5.6c5.2-1,12.7,2.6,25,12c0.3,0.2,0.3,0.6,0.1,0.9
						C482,322.7,481.9,322.8,481.7,322.8z"/>
				</g>
				<g>
					<path d="M465.2,359.2c-0.1,0-0.2,0-0.3-0.1c-0.3-0.2-0.4-0.5-0.2-0.8c10-18.2,2.8-34.7-5.3-40c-3.5-2.3-6.8-2.3-8.7,0.2
						c-0.2,0.3-0.6,0.3-0.9,0.1s-0.3-0.6-0.1-0.9c2.3-2.9,6.3-3.1,10.3-0.4c8.4,5.6,16.1,22.7,5.6,41.6
						C465.6,359.1,465.4,359.2,465.2,359.2z"/>
				</g>
				<g>
					<path d="M422.5,339c-0.1,0-0.2,0-0.2,0c-0.3-0.1-0.5-0.5-0.3-0.8c4.9-11.4,11.5-19,18.5-21.4c3.2-1.1,6.4-1,9.1,0.3
						c-0.5-11.8-2.9-26.7-16.1-39c-0.2-0.2-0.3-0.6,0-0.9c0.2-0.2,0.6-0.3,0.9,0c14,13,16.2,28.7,16.6,40.9c0,0.2-0.1,0.4-0.3,0.5
						c-0.2,0.1-0.4,0.1-0.6,0c-2.6-1.5-5.8-1.8-9.1-0.7c-3.9,1.3-11.5,5.7-17.8,20.7C422.9,338.8,422.7,339,422.5,339z"/>
				</g>
				<g>
					<path d="M450.2,318.7c-0.3,0-0.6-0.3-0.6-0.6v-0.2c0-31.5,3.8-55,10.7-66.2c0.2-0.3,0.5-0.4,0.8-0.2s0.4,0.6,0.2,0.8
						c-6.8,11-10.5,34.3-10.5,65.6v0.2C450.8,318.4,450.6,318.7,450.2,318.7z"/>
				</g>
			</g>
			<g>
				<g>
					<rect x="2.7" y="385.4" class="st11" width="484.5" height="16.4"/>
				</g>
			</g>
			<g>
				<g>
					<g>
						<path class="st8" d="M389.8,375.8c5,0,15.5-3,16.1-9.3h33.2c0,0-4.4,9.3-10.8,9.3C421.9,375.8,389.8,375.8,389.8,375.8"/>
					</g>
				</g>
				<g>
					<g>
						<rect x="389.8" y="375.8" class="st8" width="16.5" height="9.3"/>
					</g>
				</g>
				<g>
					<g>
						<rect x="406.3" y="375.8" class="st8" width="33" height="9.3"/>
					</g>
				</g>
				<g>
					<path d="M430.6,380H418c-0.3,0-0.6-0.3-0.6-0.6c0-0.3,0.3-0.6,0.6-0.6h12.6c0.3,0,0.6,0.3,0.6,0.6S430.9,380,430.6,380z"/>
				</g>
				<g>
					<path d="M427.1,382.5h-20.8c-0.3,0-0.6-0.3-0.6-0.6c0-0.3,0.3-0.6,0.6-0.6h20.8c0.3,0,0.6,0.3,0.6,0.6
						C427.8,382.2,427.5,382.5,427.1,382.5z"/>
				</g>
				<g>
					<path d="M403.2,382.5h-5.9c-0.3,0-0.6-0.3-0.6-0.6c0-0.3,0.3-0.6,0.6-0.6h5.9c0.3,0,0.6,0.3,0.6,0.6
						C403.8,382.2,403.5,382.5,403.2,382.5z"/>
				</g>
				<g>
					<path d="M395.8,380h-5.9c-0.3,0-0.6-0.3-0.6-0.6c0-0.3,0.3-0.6,0.6-0.6h5.9c0.3,0,0.6,0.3,0.6,0.6
						C396.4,379.8,396.1,380,395.8,380z"/>
				</g>
				<g>
					<path d="M439.4,376.4h-49.5c-0.3,0-0.6-0.3-0.6-0.6c0-0.3,0.3-0.6,0.6-0.6h49.5c0.3,0,0.6,0.3,0.6,0.6S439.7,376.4,439.4,376.4
						z"/>
				</g>
				<g>
					<path d="M406.3,385.7c-0.3,0-0.6-0.3-0.6-0.6v-9.3c0-0.3,0.3-0.6,0.6-0.6c0.3,0,0.6,0.3,0.6,0.6v9.3
						C406.9,385.4,406.7,385.7,406.3,385.7z"/>
				</g>
			</g>
		</g>
	</g>
</g>
</svg>
